<?xml version="1.0" encoding="UTF-8" standalone="no"?>
<!-- Created with Inkscape (http://www.inkscape.org/) -->

<svg
   xmlns:dc="http://purl.org/dc/elements/1.1/"
   xmlns:cc="http://creativecommons.org/ns#"
   xmlns:rdf="http://www.w3.org/1999/02/22-rdf-syntax-ns#"
   xmlns:svg="http://www.w3.org/2000/svg"
   xmlns="http://www.w3.org/2000/svg"
   xmlns:sodipodi="http://sodipodi.sourceforge.net/DTD/sodipodi-0.dtd"
   xmlns:inkscape="http://www.inkscape.org/namespaces/inkscape"
   width="325.60001"
   height="97.199997"
   viewBox="0 0 325.6 97.199999"
   id="svg2"
   version="1.1"
   inkscape:version="0.91 r13725"
   sodipodi:docname="devlixir-logo.svg">
  <defs
     id="defs4" />
  <sodipodi:namedview
     id="base"
     pagecolor="#ffffff"
     bordercolor="#666666"
     borderopacity="1.0"
     inkscape:pageopacity="0.0"
     inkscape:pageshadow="2"
     inkscape:zoom="4.7513514"
     inkscape:cx="157"
     inkscape:cy="46.033575"
     inkscape:document-units="px"
     inkscape:current-layer="layer1"
     showgrid="false"
     inkscape:window-width="1920"
     inkscape:window-height="1056"
     inkscape:window-x="0"
     inkscape:window-y="24"
     inkscape:window-maximized="1"
     inkscape:snap-page="false"
     units="px" />
  <metadata
     id="metadata7">
    <rdf:RDF>
      <cc:Work
         rdf:about="">
        <dc:format>image/svg+xml</dc:format>
        <dc:type
           rdf:resource="http://purl.org/dc/dcmitype/StillImage" />
        <dc:title></dc:title>
      </cc:Work>
    </rdf:RDF>
  </metadata>
  <g
     inkscape:label="Layer 1"
     inkscape:groupmode="layer"
     id="layer1"
     transform="translate(0,-955.16217)">
    <g
       id="g488"
       transform="matrix(1.0611993,0,0,-1.0611993,5.3981721,1018.8328)">
      <path
         d="m 0,0 c -2.882,0 -5.217,2.336 -5.217,5.217 l 0,17.621 c 0,2.883 2.335,5.217 5.217,5.217 l 17.621,0 c 2.882,0 5.216,-2.334 5.216,-5.217 l 0,-17.621 C 22.837,2.336 20.503,0 17.621,0 L 0,0 Z"
         style="fill:#0daa6c;fill-opacity:0.90196078;fill-rule:nonzero;stroke:none"
         id="path490"
         inkscape:connector-curvature="0" />
    </g>
    <path
       inkscape:connector-curvature="0"
       id="path494"
       style="fill:#0daa6c;fill-opacity:0.90196078;fill-rule:nonzero;stroke:none"
       d="m 75.861164,1018.8328 c -3.058376,0 -5.535214,-2.478 -5.535214,-5.5352 l 0,-18.70053 c 0,-3.05836 2.476838,-5.53521 5.535214,-5.53521 l 18.699392,0 c 3.058377,0 5.536274,2.47685 5.536274,5.53521 l 0,18.70053 c 0,3.0572 -2.477897,5.5352 -5.536274,5.5352 l -18.699392,0 z" />
    <path
       inkscape:connector-curvature="0"
       id="path498"
       style="fill:#282828;fill-opacity:1;fill-rule:nonzero;stroke:none"
       d="m 40.506358,1018.8328 c -3.058376,0 -5.536277,-2.478 -5.536277,-5.5352 l 0,-18.70052 c 0,-3.05837 2.477901,-5.53628 5.536277,-5.53628 l 18.699393,0 c 3.058376,0 5.535214,2.47791 5.535214,5.53628 l 0,18.70052 c 0,3.0572 -2.476838,5.5352 -5.535214,5.5352 l -18.699393,0 z" />
    <path
       inkscape:connector-curvature="0"
       id="path502"
       style="fill:#282828;fill-opacity:1;fill-rule:nonzero;stroke:none"
       d="m 56.97617,984.94695 c -3.058378,0 -5.536278,-2.47789 -5.536278,-5.53521 l 0,-18.70045 c 0,-3.05838 2.4779,-5.53628 5.536278,-5.53628 l 18.699391,0 c 3.058376,0 5.535214,2.4779 5.535214,5.53628 l 0,18.70045 c 0,3.05732 -2.476838,5.53521 -5.535214,5.53521 l -18.699391,0 z" />
    <path
       inkscape:connector-curvature="0"
       id="path506"
       style="fill:#282828;fill-opacity:1;fill-rule:nonzero;stroke:none"
       d="m 56.97617,1052.7196 c -3.057317,0 -5.536278,-2.478 -5.536278,-5.5352 l 0,-18.7015 c 0,-3.0573 2.478961,-5.5363 5.536278,-5.5363 l 18.700451,0 c 3.058377,0 5.535215,2.479 5.535215,5.5363 l 0,18.7015 c 0,3.0572 -2.476838,5.5352 -5.535215,5.5352 l -18.700451,0 z" />
    <path
       inkscape:connector-curvature="0"
       id="path510"
       style="fill:#0daa6c;fill-opacity:0.90196078;fill-rule:nonzero;stroke:none"
       d="m 21.777782,1052.7196 c -3.057314,0 -5.536276,-2.4779 -5.536276,-5.5352 l 0,-18.7015 c 0,-3.0573 2.478962,-5.5363 5.536276,-5.5363 l 18.700456,0 c 3.058376,0 5.535214,2.479 5.535214,5.5363 l 0,18.7015 c 0,3.0573 -2.476838,5.5352 -5.535214,5.5352 l -18.700456,0 z" />
    <path
       inkscape:connector-curvature="0"
       id="path514"
       style="fill:#0daa6c;fill-opacity:0.90196078;fill-rule:nonzero;stroke:none"
       d="m 21.777782,984.94695 c -3.057314,0 -5.536276,-2.47789 -5.536276,-5.53627 l 0,-18.6994 c 0,-3.05838 2.478962,-5.53627 5.536276,-5.53627 l 18.700456,0 c 3.058376,0 5.535214,2.47789 5.535214,5.53627 l 0,18.6994 c 0,3.05838 -2.476838,5.53627 -5.535214,5.53627 l -18.700456,0 z" />
    <path
       style="font-style:normal;font-variant:normal;font-weight:normal;font-stretch:normal;font-size:medium;line-height:125%;font-family:Ubuntu;-inkscape-font-specification:'Ubuntu, Normal';text-align:start;letter-spacing:0px;word-spacing:0px;writing-mode:lr-tb;text-anchor:start;fill:#282828;fill-opacity:1;stroke:none;stroke-width:1px;stroke-linecap:butt;stroke-linejoin:miter;stroke-opacity:1"
       d="m 146.55884,1006.101 q 0,6.4696 -2.01278,11.286 -2.01276,4.7444 -5.67888,7.9072 -3.66613,3.0911 -8.76994,4.6726 -5.10381,1.5095 -11.21401,1.5095 -3.01915,0 -6.68528,-0.2875 -3.59424,-0.2156 -6.54151,-0.9345 l 0,-48.30653 q 2.94727,-0.71884 6.54151,-0.9345 3.66613,-0.28754 6.68528,-0.28754 6.1102,0 11.21401,1.58146 5.10381,1.50959 8.76994,4.67252 3.66612,3.09103 5.67888,7.90731 2.01278,4.74438 2.01278,11.21398 z m -27.10053,19.2651 q 9.92009,0 14.80825,-5.0319 4.88816,-5.1038 4.88816,-14.2332 0,-9.12932 -4.88816,-14.16125 -4.88816,-5.10382 -14.80825,-5.10382 -2.94728,0 -4.60062,0.0719 -1.58147,0.0719 -2.22843,0.14378 l 0,38.09889 q 0.64696,0.072 2.22843,0.1437 1.65334,0.072 4.60062,0.072 z"
       id="path4537"
       inkscape:connector-curvature="0" />
    <g
       id="text3477-9-9"
       style="font-style:normal;font-variant:normal;font-weight:normal;font-stretch:normal;font-size:227.3079071px;line-height:125%;font-family:Ubuntu;-inkscape-font-specification:'Ubuntu, Normal';text-align:start;letter-spacing:0px;word-spacing:0px;writing-mode:lr-tb;text-anchor:start;fill:#282828;fill-opacity:1;stroke:none;stroke-width:1px;stroke-linecap:butt;stroke-linejoin:miter;stroke-opacity:1"
       transform="matrix(0.31624376,0,0,0.31624376,-14.555555,720.59146)">
      <path
         inkscape:connector-curvature="0"
         id="path4540"
         d="m 522.20367,921.45416 q 0,-15.68425 4.54615,-27.27695 4.54616,-11.82001 12.04732,-19.54848 7.50116,-7.72847 17.2754,-11.59271 9.77424,-3.86423 20.0031,-3.86423 23.86733,0 36.59657,15.00232 12.72925,14.77502 12.72925,45.23428 0,1.36384 0,3.63692 0,2.04577 -0.22731,3.86424 l -80.92162,0 q 1.36385,18.41194 10.68347,27.95887 9.31963,9.54693 29.09542,9.54693 11.13808,0 18.63924,-1.81846 7.72847,-2.04577 11.59271,-3.86424 l 2.955,17.73002 q -3.86423,2.04577 -13.63847,4.31885 -9.54694,2.27308 -21.82156,2.27308 -15.45694,0 -26.82234,-4.54616 -11.13808,-4.77347 -18.41194,-12.95655 -7.27385,-8.18308 -10.91078,-19.32117 -3.40961,-11.3654 -3.40961,-24.77656 z m 81.14892,-11.59271 q 0.22731,-14.3204 -7.27386,-23.41271 -7.27385,-9.31963 -20.2304,-9.31963 -7.27385,0 -12.95655,2.95501 -5.45539,2.72769 -9.31962,7.27385 -3.86424,4.54616 -6.13732,10.45616 -2.04577,5.91001 -2.72769,12.04732 l 58.64544,0 z" />
    </g>
    <g
       id="text3477-9-9-8"
       style="font-style:normal;font-variant:normal;font-weight:normal;font-stretch:normal;font-size:227.3079071px;line-height:125%;font-family:Ubuntu;-inkscape-font-specification:'Ubuntu, Normal';text-align:start;letter-spacing:0px;word-spacing:0px;writing-mode:lr-tb;text-anchor:start;fill:#282828;fill-opacity:1;stroke:none;stroke-width:1px;stroke-linecap:butt;stroke-linejoin:miter;stroke-opacity:1"
       transform="matrix(0.31624376,0,0,0.31624376,-14.555555,720.59146)">
      <path
         inkscape:connector-curvature="0"
         id="path4543"
         d="m 744.9772,864.85445 q -8.86501,33.18696 -20.91233,63.64622 -11.82001,30.45926 -22.9581,54.5539 l -19.09386,0 q -11.13809,-24.09464 -23.18541,-54.5539 -11.82001,-30.45926 -20.68502,-63.64622 l 22.73079,0 q 2.7277,11.13809 6.36462,23.86733 3.86424,12.50194 7.95578,25.00387 4.31885,12.27463 8.6377,23.86733 4.31885,11.59271 8.18308,20.68502 3.86424,-9.09231 8.18309,-20.68502 4.31885,-11.5927 8.41039,-23.86733 4.31885,-12.50193 7.95578,-25.00387 3.86423,-12.72924 6.59193,-23.86733 l 21.82156,0 z" />
    </g>
    <g
       id="text3477-9-9-8-0"
       style="font-style:normal;font-variant:normal;font-weight:normal;font-stretch:normal;font-size:227.3079071px;line-height:125%;font-family:Ubuntu;-inkscape-font-specification:'Ubuntu, Normal';text-align:start;letter-spacing:0px;word-spacing:0px;writing-mode:lr-tb;text-anchor:start;fill:#282828;fill-opacity:1;stroke:none;stroke-width:1px;stroke-linecap:butt;stroke-linejoin:miter;stroke-opacity:1"
       transform="matrix(0.31624376,0,0,0.31624376,-14.555555,720.59146)">
      <path
         inkscape:connector-curvature="0"
         id="path4546"
         d="m 793.63276,983.05457 q -19.54848,-0.45461 -27.73156,-8.41039 -8.18309,-7.95578 -8.18309,-24.77656 l 0,-141.84014 21.13964,-3.63692 0,142.06744 q 0,5.22808 0.90923,8.6377 0.90923,3.40962 2.955,5.45539 2.04578,2.04577 5.45539,3.18231 3.40962,0.90923 8.4104,1.59116 l -2.95501,17.73001 z" />
    </g>
    <g
       id="text3477-9-9-8-0-7"
       style="font-style:normal;font-variant:normal;font-weight:normal;font-stretch:normal;font-size:227.3079071px;line-height:125%;font-family:Ubuntu;-inkscape-font-specification:'Ubuntu, Normal';text-align:start;letter-spacing:0px;word-spacing:0px;writing-mode:lr-tb;text-anchor:start;fill:#282828;fill-opacity:1;stroke:none;stroke-width:1px;stroke-linecap:butt;stroke-linejoin:miter;stroke-opacity:1"
       transform="matrix(0.31624376,0,0,0.31624376,-14.555555,720.59146)">
      <path
         inkscape:connector-curvature="0"
         id="path4549"
         d="m 833.65068,983.05457 -21.13963,0 0,-118.20012 21.13963,0 0,118.20012 z M 822.96721,843.48751 q -5.6827,0 -9.77424,-3.63693 -3.86423,-3.86423 -3.86423,-10.22885 0,-6.36462 3.86423,-10.00155 4.09154,-3.86423 9.77424,-3.86423 5.6827,0 9.54693,3.86423 4.09155,3.63693 4.09155,10.00155 0,6.36462 -4.09155,10.22885 -3.86423,3.63693 -9.54693,3.63693 z" />
    </g>
    <g
       id="text3477-9-9-8-0-7-1"
       style="font-style:normal;font-variant:normal;font-weight:normal;font-stretch:normal;font-size:227.3079071px;line-height:125%;font-family:Ubuntu;-inkscape-font-specification:'Ubuntu, Normal';text-align:start;letter-spacing:0px;word-spacing:0px;writing-mode:lr-tb;text-anchor:start;fill:#282828;fill-opacity:1;stroke:none;stroke-width:1px;stroke-linecap:butt;stroke-linejoin:miter;stroke-opacity:1"
       transform="matrix(0.31624376,0,0,0.31624376,-14.555555,720.59146)">
      <path
         inkscape:connector-curvature="0"
         id="path4552"
         d="m 934.58717,983.05457 q -2.50039,-5.00078 -6.13731,-11.13809 -3.63693,-6.13732 -7.95578,-12.50194 -4.31885,-6.59193 -8.86501,-12.95655 -4.54616,-6.36462 -8.86501,-12.04732 -4.31885,5.6827 -8.86501,12.27463 -4.54615,6.36462 -8.865,12.95655 -4.09155,6.36462 -7.72847,12.50194 -3.63693,6.13731 -6.13732,10.91078 l -21.82156,0 q 7.95578,-15.45694 18.86656,-31.3685 11.13809,-16.13886 22.04887,-30.68656 l -39.09696,-56.14506 23.86733,0 28.18618,41.37004 28.41349,-41.37004 22.50348,0 -38.18773,54.78121 q 10.91078,14.77501 22.27618,31.36849 11.5927,16.36617 19.54848,32.05042 l -23.18541,0 z" />
    </g>
    <g
       id="text3477-9-9-8-0-7-1-1"
       style="font-style:normal;font-variant:normal;font-weight:normal;font-stretch:normal;font-size:227.3079071px;line-height:125%;font-family:Ubuntu;-inkscape-font-specification:'Ubuntu, Normal';text-align:start;letter-spacing:0px;word-spacing:0px;writing-mode:lr-tb;text-anchor:start;fill:#282828;fill-opacity:1;stroke:none;stroke-width:1px;stroke-linecap:butt;stroke-linejoin:miter;stroke-opacity:1"
       transform="matrix(0.31624376,0,0,0.31624376,-14.555555,720.59146)">
      <path
         inkscape:connector-curvature="0"
         id="path4555"
         d="m 994.83544,983.05457 -21.13964,0 0,-118.20012 21.13964,0 0,118.20012 z M 984.15197,843.48751 q -5.6827,0 -9.77424,-3.63693 -3.86424,-3.86423 -3.86424,-10.22885 0,-6.36462 3.86424,-10.00155 4.09154,-3.86423 9.77424,-3.86423 5.68269,0 9.54693,3.86423 4.09154,3.63693 4.09154,10.00155 0,6.36462 -4.09154,10.22885 -3.86424,3.63693 -9.54693,3.63693 z" />
    </g>
    <g
       id="text3477-9-9-8-0-7-1-1-0"
       style="font-style:normal;font-variant:normal;font-weight:normal;font-stretch:normal;font-size:227.3079071px;line-height:125%;font-family:Ubuntu;-inkscape-font-specification:'Ubuntu, Normal';text-align:start;letter-spacing:0px;word-spacing:0px;writing-mode:lr-tb;text-anchor:start;fill:#282828;fill-opacity:1;stroke:none;stroke-width:1px;stroke-linecap:butt;stroke-linejoin:miter;stroke-opacity:1"
       transform="matrix(0.31624376,0,0,0.31624376,-14.555555,720.59146)">
      <path
         inkscape:connector-curvature="0"
         id="path4558"
         d="m 1054.1746,862.35407 q 2.7276,0 6.1373,0.45461 3.6369,0.22731 7.0465,0.90923 3.4096,0.45462 6.1373,1.13654 2.955,0.45462 4.3189,0.90924 l -3.637,18.41194 q -2.5003,-0.90924 -8.4103,-2.04578 -5.6827,-1.36384 -14.7751,-1.36384 -5.91,0 -11.82,1.36384 -5.6827,1.13654 -7.5011,1.59116 l 0,99.33356 -21.1397,0 0,-113.19934 q 7.5012,-2.7277 18.6393,-5.00078 11.1381,-2.50038 25.0039,-2.50038 z" />
    </g>
  </g>
</svg>
